<?xml version="1.0" standalone="no"?>
<!DOCTYPE svg PUBLIC "-//W3C//DTD SVG 20010904//EN"
 "http://www.w3.org/TR/2001/REC-SVG-20010904/DTD/svg10.dtd">
<svg version="1.0" xmlns="http://www.w3.org/2000/svg"
 width="128.000000pt" height="128.000000pt" viewBox="0 0 128.000000 128.000000"
 preserveAspectRatio="xMidYMid meet">
<metadata>
Created by potrace 1.14, written by Peter Selinger 2001-2017
</metadata>
<g transform="translate(0.000000,128.000000) scale(0.100000,-0.100000)"
fill="#000000" stroke="none">
<path d="M133 1110 c-25 -10 -42 -39 -35 -60 2 -8 17 -44 32 -80 15 -36 78
-184 140 -330 62 -146 132 -312 157 -370 24 -58 51 -113 60 -122 14 -15 34
-18 143 -18 108 0 129 3 143 18 15 16 51 98 204 462 36 85 73 173 83 195 10
22 30 69 44 105 15 36 34 79 42 97 21 46 18 80 -8 97 -31 19 -315 20 -341 1
-10 -7 -49 -104 -92 -231 -70 -205 -75 -216 -85 -189 -21 55 -118 340 -125
365 -16 62 -22 65 -188 66 -84 1 -162 -2 -174 -6z"/>
</g>
</svg>
